<svg xmlns:inkscape="http://www.inkscape.org/namespaces/inkscape" xmlns:sodipodi="http://sodipodi.sourceforge.net/DTD/sodipodi-0.dtd" xmlns="http://www.w3.org/2000/svg" xmlns:svg="http://www.w3.org/2000/svg" version="1.1" id="svg2" xml:space="preserve" width="535.29333" height="545.17334" viewBox="0 0 535.29333 545.17334" sodipodi:docname="Fullmetall_Alchemist_anime.eps"><defs id="defs6" fill="#43fe5a"/><sodipodi:namedview id="namedview4" pagecolor="#c8c8a9" bordercolor="#00ff41" borderopacity="1.0" inkscape:pageshadow="2" inkscape:pageopacity="0.0" inkscape:pagecheckerboard="0" fill="#43fe5a"/><g id="g8" inkscape:groupmode="layer" inkscape:label="ink_ext_XXXXXX" transform="matrix(1.3333333,0,0,-1.3333333,0,545.17333)"><g id="g10" transform="scale(0.1)"><path d="m 0,4067.87 c 0,0 543.156,-327.31 870.488,-292.48 0,0 125.352,-466.57 396.952,-578 0,6.96 -445.71,153.2 -584.979,90.52 -6.977,0 188.027,334.25 -445.715,383.02 0,-6.96 153.227,181.07 -229.8085,327.31 C 13.918,3991.29 0,4067.87 0,4067.87" style="fill:#43fe5a;fill-opacity:1;fill-rule:nonzero;stroke:none" id="path12"/><path d="m 4014.69,4088.77 c 0,0 -543.14,-327.32 -870.44,-292.49 0,0 -125.35,-466.56 -396.95,-578 0,6.95 445.67,153.2 584.98,90.52 6.93,0 -188.03,334.26 445.67,383.02 0,-6.96 -153.19,181.07 229.81,327.31 -6.98,-6.95 6.93,69.64 6.93,69.64" style="fill:#43fe5a;fill-opacity:1;fill-rule:nonzero;stroke:none" id="path14"/><path d="m 320.316,1160.39 c 0,0 -167.132,386.5 62.676,1107.3 0,0 -396.9451,261.15 -344.7147,313.38 20.8946,104.46 438.7307,-177.58 470.0667,-104.46 31.34,73.13 -449.1721,490.96 -407.391,595.43 41.781,104.45 567.594,-410.89 630.27,-369.11 62.675,41.79 -198.473,396.95 -142.774,435.27 27.215,18.71 330.801,-278.57 393.477,-257.68 62.674,20.89 832.174,515.34 1688.744,66.16 0,0 308.15,219.37 329.05,198.48 31.34,-31.34 -167.14,-329.05 -167.14,-329.05 0,0 15.68,-67.9 67.9,-78.34 52.23,-10.45 407.4,282.03 438.73,235.03 31.34,-47.01 -313.37,-349.94 -219.36,-433.51 94.01,-83.57 407.39,198.48 459.62,130.57 52.23,-67.9 -297.71,-282.04 -287.26,-339.49 955.42,-2575.897 -2795.245,-3268.358 -2569.718,-788.7 0,0 -53.945,-1464.1505 1359.728,-1317.908 1324.89,174.07 1220.43,1803.668 299.42,2106.608 -1013.21,268.11 -1302.48,-472.21 -1302.89,-476.17 -68.99,-164.53 -50.96,-493.37 7.64,-564.94 62.67,-76.63 -267.273,59.16 -267.273,59.16 l 99.235,130.58 -107.071,88.79 60.063,60.06 -94.016,125.35 99.238,114.92 -245.476,130.59 86.176,-151.49 -148.852,-172.36 88.789,-114.91 -94.015,-120.13 41.785,-94.01 -94.016,-107.07 z m 148.86,783.46 c -41.828,0 -75.735,-33.92 -75.735,-75.73 0,-41.83 33.907,-75.74 75.735,-75.74 41.82,0 75.73,33.91 75.73,75.74 0,41.81 -33.91,75.73 -75.73,75.73" style="fill:#43fe5a;fill-opacity:1;fill-rule:nonzero;stroke:none" id="path16"/><path d="m 2879.59,763.449 -412.78,707.711 -107.12,-63.53 77.49,-134.08 -216.38,-374.3 h -127.72 l -1.38,-139.309 787.89,3.508" style="fill:#43fe5a;fill-opacity:1;fill-rule:nonzero;stroke:none" id="path18"/><path d="m 1906.03,899.25 h -118.05 l -216.38,374.3 62.38,107.93 -111.6,62.26 -393.19,-688.084 775.45,3.465 1.39,140.129" style="fill:#43fe5a;fill-opacity:1;fill-rule:nonzero;stroke:none" id="path20"/><path d="m 1727.63,1543.47 60.35,104.42 h 432.82 l 45.25,-78.31 106.5,63.13 -374.91,642.77 -382.43,-669.3 112.42,-62.71" style="fill:#43fe5a;fill-opacity:1;fill-rule:nonzero;stroke:none" id="path22"/><path d="M 1768.96,695.832 1994,341.73 2215.94,697.832 Z" style="fill:#43fe5a;fill-opacity:1;fill-rule:nonzero;stroke:none" id="path24"/><path d="m 2615.99,1339.73 247.11,396.54 -477.17,-2.12 z" style="fill:#43fe5a;fill-opacity:1;fill-rule:nonzero;stroke:none" id="path26"/><path d="m 1614.16,1730.68 -501.54,-2.2 263.44,-414.5 z" style="fill:#43fe5a;fill-opacity:1;fill-rule:nonzero;stroke:none" id="path28"/></g></g></svg>